<svg width="417" height="164" viewBox="0 0 417 164" fill="none" xmlns="http://www.w3.org/2000/svg">
    <path fill-rule="evenodd" clip-rule="evenodd" d="M26.2892 60.8852C0.800381 81.0017 -12.3555 110.597 18.765 132.762C45.622 151.898 91.7662 158.128 129.267 161.445C166.915 164.779 204.755 164.124 241.987 161.317C304.953 156.575 421.258 141.94 416.426 89.07C413.656 58.7689 373.126 28.6866 332.318 14.0579C283.148 -3.56857 225.37 -1.60577 173.753 5.89728C121.349 13.5114 71.6463 28.6919 39.355 55.9966C13.2257 78.0918 -6.94967 114.258 26.8621 138.989C56.734 160.84 112.421 162.514 152.975 160.16C202.108 157.306 251.065 152.745 297.651 143.113C340.388 134.273 385.53 119.938 406.198 93.6262C420.881 74.9273 418.853 54.282 391.459 39.8404C363.39 25.0383 322.76 20.3944 288.231 17.4486C250.269 14.2108 213.219 14.2203 175.739 17.1794C166.784 17.889 157.821 18.5904 148.859 19.2548C144.861 19.5536 146.448 23.4257 150.409 23.128C175.367 21.2713 200.061 18.6661 225.361 18.722C243.13 18.7647 260.95 19.4548 278.7 20.671C315.556 23.2003 357.839 27.8527 388.187 43.1171C424.649 61.463 407.319 91.6404 381.39 108.772C345.994 132.165 290.341 141.914 240.964 148.373C194.122 154.5 141.862 160.163 93.4481 155.248C69.9898 152.865 45.8592 146.97 29.7788 135.206C11.2035 121.62 13.585 102.964 20.9342 87.5713C38.9645 49.843 91.4072 26.1574 148.619 14.403C203.662 3.10064 267.892 -1.66938 323.277 15.4172C350.876 23.9276 372.933 38.0085 389.324 54.2274C402.37 67.1433 412.207 81.9474 409.93 97.1326C406.04 123.085 362.902 137.139 328.609 145.029C288.546 154.241 244.571 158.229 201.591 159.512C161.488 160.707 120.012 158.454 80.9649 150.88C59.1825 146.651 37.2884 140.126 21.792 129.09C4.43385 116.722 3.62167 100.013 11.316 85.5885C21.6018 66.3129 46.546 50.8524 71.7438 39.1124C96.6857 27.489 127.757 18.0038 159.81 17.2559C163.806 17.1633 163.963 13.2188 159.929 13.3125C107.332 14.5376 57.5889 36.1796 26.2892 60.8852Z" fill="#1BACB0"/>
</svg>
